# xmcd CD database file
#
# Track frame offsets:
#	150
#	12965
#	30140
#	42878
#	61460
#	72180
#	83900
#	96518
#	116450
#	128743
#	149238
#	159458
#	176110
#	192165
#	208378
#	226883
#	245878
#	268533
#
# Disc length: 3845 seconds
#
# Revision: 1
# Processed by: cddbd v1.5.2PL0 Copyright (c) Steve Scherf et al.
# Submitted via: CDex 1.51
#
DISCID=060f0312
DTITLE=One for the Road - Country Vol. 2
DYEAR=1900
DGENRE=Country
TTITLE0=The Kentucky Headhunters - Neck of the Woods
TTITLE1=Alabama - If you´re gonna play in Texas
TTITLE2=Jack Ingram - Big Time
TTITLE3=Earl Thomas Conley - Somewhere between right and wrong
TTITLE4=Ronnie Milsap - Pure love
TTITLE5=Dolly Parton - 9 to 5
TTITLE6=Charlie Pride - Mountain of love
TTITLE7=Clint Bradley - Barbed wire round the meadow
TTITLE8=The Kentucky Headhunters - Singing the Blues
TTITLE9=Foster and Lloyd - Crazy over you
TTITLE10=Jack Ingram - Flutter
TTITLE11=Lorrie Morgan - Dear me
TTITLE12=The Kentucky Headhunters - Runnin´ water
TTITLE13=Clint Bradley - Insane
TTITLE14=Baillie and The Boys - Heart of stone
TTITLE15=Alabama - Mountain music
TTITLE16=Tanya Tucker - Already gone
TTITLE17=John Anderson - Heartache tonight
EXTD=
EXTT0=
EXTT1=
EXTT2=
EXTT3=
EXTT4=
EXTT5=
EXTT6=
EXTT7=
EXTT8=
EXTT9=
EXTT10=
EXTT11=
EXTT12=
EXTT13=
EXTT14=
EXTT15=
EXTT16=
EXTT17=
PLAYORDER=
